<svg width="30" height="30" viewBox="0 0 30 30" fill="none" xmlns="http://www.w3.org/2000/svg">
<path d="M17.5 16.25H16.25V15C16.25 14.6685 16.1183 14.3505 15.8839 14.1161C15.6495 13.8817 15.3315 13.75 15 13.75C14.6685 13.75 14.3505 13.8817 14.1161 14.1161C13.8817 14.3505 13.75 14.6685 13.75 15V16.25H12.5C12.1685 16.25 11.8505 16.3817 11.6161 16.6161C11.3817 16.8505 11.25 17.1685 11.25 17.5C11.25 17.8315 11.3817 18.1495 11.6161 18.3839C11.8505 18.6183 12.1685 18.75 12.5 18.75H13.75V20C13.75 20.3315 13.8817 20.6495 14.1161 20.8839C14.3505 21.1183 14.6685 21.25 15 21.25C15.3315 21.25 15.6495 21.1183 15.8839 20.8839C16.1183 20.6495 16.25 20.3315 16.25 20V18.75H17.5C17.8315 18.75 18.1495 18.6183 18.3839 18.3839C18.6183 18.1495 18.75 17.8315 18.75 17.5C18.75 17.1685 18.6183 16.8505 18.3839 16.6161C18.1495 16.3817 17.8315 16.25 17.5 16.25Z" fill="white" fill-opacity="0.38"/>
<path d="M24.375 8.8125H15.625L12.3375 4.8375C12.2212 4.69411 12.0745 4.57827 11.9081 4.4983C11.7417 4.41833 11.5596 4.37623 11.375 4.375H5.625C4.80826 4.36498 4.02083 4.679 3.43512 5.2483C2.84942 5.81761 2.51317 6.59581 2.5 7.4125V22.5875C2.51317 23.4042 2.84942 24.1824 3.43512 24.7517C4.02083 25.321 4.80826 25.635 5.625 25.625H24.375C25.1917 25.635 25.9792 25.321 26.5649 24.7517C27.1506 24.1824 27.4868 23.4042 27.5 22.5875V11.85C27.4868 11.0333 27.1506 10.2551 26.5649 9.6858C25.9792 9.1165 25.1917 8.80248 24.375 8.8125ZM25 22.5625C24.9953 22.6392 24.9753 22.7142 24.9411 22.783C24.9069 22.8518 24.8593 22.9131 24.801 22.9632C24.7427 23.0133 24.675 23.0513 24.6019 23.0748C24.5287 23.0982 24.4515 23.1068 24.375 23.1H5.625C5.54846 23.1068 5.47132 23.0982 5.39815 23.0748C5.32498 23.0513 5.25726 23.0133 5.199 22.9632C5.14073 22.9131 5.0931 22.8518 5.05892 22.783C5.02474 22.7142 5.00471 22.6392 5 22.5625V7.4125C5.00471 7.3358 5.02474 7.26082 5.05892 7.19199C5.0931 7.12316 5.14073 7.06188 5.199 7.01177C5.25726 6.96167 5.32498 6.92375 5.39815 6.90026C5.47132 6.87676 5.54846 6.86818 5.625 6.875H10.7875L14.0375 10.85C14.1538 10.9934 14.3005 11.1092 14.4669 11.1892C14.6333 11.2692 14.8154 11.3113 15 11.3125H24.375C24.4515 11.3057 24.5287 11.3143 24.6019 11.3378C24.675 11.3612 24.7427 11.3992 24.801 11.4493C24.8593 11.4994 24.9069 11.5607 24.9411 11.6295C24.9753 11.6983 24.9953 11.7733 25 11.85V22.5625Z" fill="white" fill-opacity="0.38"/>
</svg>
